# This file uses centimeters as units for non-parametric coordinates.

g default
v -1.244140 0.843156 1.245172
v -1.371637 0.808994 1.245172
v -1.464972 0.715659 1.245172
v -1.499135 0.588162 1.245172
v -1.464972 0.588162 1.372669
v -1.371637 0.588162 1.466003
v -1.244140 0.588162 1.500166
v -1.244140 0.715659 1.466003
v -1.244140 0.808994 1.372669
v 1.500865 0.588162 1.245172
v 1.466702 0.715659 1.245172
v 1.373368 0.808994 1.245172
v 1.245871 0.843156 1.245172
v 1.245871 0.808994 1.372669
v 1.245871 0.715659 1.466003
v 1.245871 0.588162 1.500166
v 1.373368 0.588162 1.466003
v 1.466702 0.588162 1.372669
v -1.244140 0.588162 -1.499834
v -1.371637 0.588162 -1.465671
v -1.464972 0.588162 -1.372336
v -1.499135 0.588162 -1.244839
v -1.464972 0.715659 -1.244839
v -1.371637 0.808994 -1.244839
v -1.244140 0.843156 -1.244839
v -1.244140 0.808994 -1.372336
v -1.244140 0.715659 -1.465671
v 1.500865 0.588162 -1.244839
v 1.466702 0.588162 -1.372336
v 1.373368 0.588162 -1.465671
v 1.245871 0.588162 -1.499834
v 1.245871 0.715659 -1.465671
v 1.245871 0.808994 -1.372336
v 1.245871 0.843156 -1.244839
v 1.373368 0.808994 -1.244839
v 1.466702 0.715659 -1.244839
v -1.499135 0.333116 1.245172
v -1.244140 0.333116 1.500166
v -1.371637 0.333116 1.466003
v -1.464972 0.333116 1.372669
v 1.500865 0.333116 1.245172
v 1.466702 0.333116 1.372669
v 1.373368 0.333116 1.466003
v 1.245871 0.333116 1.500166
v -1.499135 0.333116 -1.244839
v -1.464972 0.333116 -1.372336
v -1.371637 0.333116 -1.465671
v -1.244140 0.333116 -1.499834
v 1.500865 0.333116 -1.244839
v 1.245871 0.333116 -1.499834
v 1.373368 0.333116 -1.465671
v 1.466702 0.333116 -1.372336
v -1.363097 0.779408 1.364128
v -1.435386 0.707118 1.364128
v -1.363097 0.707118 1.436418
v 1.437117 0.707118 1.364128
v 1.364827 0.779408 1.364128
v 1.364827 0.707118 1.436418
v -1.363097 0.707118 -1.436085
v -1.435386 0.707118 -1.363795
v -1.363097 0.779408 -1.363795
v 1.437117 0.707118 -1.363795
v 1.364827 0.707118 -1.436085
v 1.364827 0.779408 -1.363795
vt 0.281439 0.260927
vt 0.271709 0.265501
vt 0.245112 0.262723
vt 0.255843 0.273514
vt 0.241387 0.179324
vt 0.252120 0.171784
vt 0.262857 0.161768
vt 0.273540 0.151709
vt 0.276799 0.207516
vt 0.279809 0.241811
vt 0.504426 0.180056
vt 0.493090 0.274174
vt 0.503881 0.263443
vt 0.476337 0.266071
vt 0.466121 0.261442
vt 0.467266 0.242334
vt 0.469281 0.208052
vt 0.470621 0.152258
vt 0.481885 0.162377
vt 0.493209 0.172455
vt 0.277144 0.595244
vt 0.266109 0.586007
vt 0.018836 0.186322
vt 0.255002 0.575771
vt 0.029796 0.183748
vt 0.255243 0.489239
vt 0.029387 0.262123
vt 0.271770 0.494366
vt 0.281857 0.497361
vt 0.280687 0.514833
vt 0.278612 0.545786
vt 0.719455 0.185666
vt 0.492249 0.576431
vt 0.730578 0.188301
vt 0.481064 0.586652
vt 0.469958 0.595872
vt 0.468734 0.546365
vt 0.466792 0.515380
vt 0.465690 0.497891
vt 0.475844 0.494946
vt 0.719606 0.264043
vt 0.492490 0.489899
vt 0.253954 0.952793
vt 0.234831 0.025445
vt 0.267384 0.025536
vt 0.264744 0.974525
vt 0.256533 0.025506
vt 0.253893 0.974494
vt 0.245682 0.025475
vt 0.253924 0.963643
vt 0.505151 0.026197
vt 0.491172 0.963783
vt 0.493780 0.026165
vt 0.491141 0.975154
vt 0.482929 0.026135
vt 0.480290 0.975124
vt 0.469439 0.975094
vt 0.472078 0.026105
vt 0.030136 0.024876
vt 0.254523 0.748098
vt 0.254553 0.737247
vt 0.019286 0.024846
vt 0.265022 0.718818
vt 0.275433 0.707474
vt 0.491769 0.749278
vt 0.719656 0.026794
vt 0.471076 0.708276
vt 0.481429 0.719546
vt 0.731027 0.026825
vt 0.491800 0.737907
vt 0.270364 0.251112
vt 0.255873 0.262753
vt 0.265828 0.230500
vt 0.493120 0.263413
vt 0.477417 0.251689
vt 0.481519 0.231101
vt 0.266591 0.526801
vt 0.255213 0.500000
vt 0.018626 0.262093
vt 0.270683 0.507784
vt 0.492460 0.500660
vt 0.730367 0.264073
vt 0.480897 0.527422
vt 0.476876 0.508376
vn 0.000000 -1.000000 -0.000000
vn 0.000000 -1.000000 -0.000000
vn 0.000000 -1.000000 -0.000000
vn 0.000000 -1.000000 -0.000000
vn 0.000000 -1.000000 -0.000000
vn 0.000000 -1.000000 -0.000000
vn 0.000000 -1.000000 -0.000000
vn 0.000000 -1.000000 -0.000000
vn -0.999915 0.000000 0.013050
vn -0.995985 0.088636 0.012558
vn -0.995985 0.088636 -0.012558
vn -0.999915 0.000000 -0.013050
vn 0.013051 0.000000 0.999915
vn 0.012558 0.088637 0.995985
vn -0.012558 0.088637 0.995985
vn -0.013051 0.000000 0.999915
vn 0.012985 0.999831 0.012985
vn 0.012985 0.999831 -0.012985
vn -0.012985 0.999831 -0.012985
vn -0.012985 0.999831 0.012985
vn 0.999915 0.000000 -0.013051
vn 0.995985 0.088637 -0.012558
vn 0.995985 0.088637 0.012558
vn 0.999915 0.000000 0.013051
vn -0.013051 0.000000 -0.999915
vn -0.012558 0.088637 -0.995985
vn 0.012558 0.088637 -0.995985
vn 0.013051 0.000000 -0.999915
vn -0.866523 0.499026 0.010513
vn -0.866523 0.499026 -0.010513
vn -0.499025 0.866524 0.010513
vn -0.499025 0.866524 -0.010513
vn -0.491819 0.075021 0.867459
vn -0.500001 0.000000 0.866025
vn -0.867459 0.075021 0.491819
vn -0.866025 0.000000 0.500001
vn -0.010513 0.866524 0.499026
vn 0.010513 0.866524 0.499026
vn -0.010513 0.499026 0.866523
vn 0.010513 0.499026 0.866523
vn 0.499025 0.866524 0.010513
vn 0.499025 0.866524 -0.010513
vn 0.866523 0.499026 0.010513
vn 0.866523 0.499026 -0.010513
vn 0.867459 0.075021 0.491819
vn 0.965925 0.000000 0.258821
vn 0.491819 0.075021 0.867459
vn 0.500001 0.000000 0.866025
vn 0.707107 0.000000 0.707107
vn -0.867459 0.075021 -0.491819
vn -0.866025 0.000000 -0.500001
vn -0.491819 0.075021 -0.867459
vn -0.500001 0.000000 -0.866025
vn -0.010513 0.499026 -0.866523
vn 0.010513 0.499026 -0.866523
vn -0.010513 0.866524 -0.499026
vn 0.010513 0.866524 -0.499026
vn 0.491819 0.075021 -0.867459
vn 0.500001 0.000000 -0.866025
vn 0.867459 0.075021 -0.491819
vn 0.707107 0.000000 -0.707107
vn 0.965926 0.000000 -0.258821
vn 0.000000 -1.000000 -0.000000
vn 0.000000 -1.000000 -0.000000
vn 0.000000 -1.000000 0.000000
vn 0.000000 -1.000000 0.000000
vn 0.000000 -1.000000 0.000000
vn 0.000000 -1.000000 0.000000
vn 0.000000 -1.000000 -0.000000
vn 0.000000 -1.000000 -0.000000
vn -0.416264 0.808362 0.416264
vn -0.808362 0.416264 0.416264
vn -0.416265 0.416264 0.808361
vn 0.808362 0.416264 0.416265
vn 0.416264 0.808362 0.416264
vn 0.416265 0.416264 0.808361
vn -0.416265 0.416264 -0.808361
vn -0.808362 0.416264 -0.416264
vn -0.416264 0.808362 -0.416263
vn 0.808362 0.416264 -0.416265
vn 0.416264 0.416264 -0.808361
vn 0.416264 0.808362 -0.416264
s 1
g pCube23
f 45/60/1 48/64/2 50/67/3 49/65/4 41/52/5 44/57/6 38/46/7 37/43/8
s 2
f 37/44/9 4/5/10 22/25/11 45/59/12
f 44/58/13 16/18/14 7/8/15 38/45/16
f 13/15/17 34/39/18 25/29/19 1/1/20
f 49/66/21 28/32/22 10/11/23 41/51/24
f 48/64/25 19/21/26 31/36/27 50/67/28
f 4/5/10 3/3/29 23/27/30 22/25/11
f 3/4/29 2/2/31 24/28/32 23/26/30
f 2/2/31 1/1/20 25/29/19 24/28/32
f 7/8/15 6/7/33 39/47/34 38/45/16
f 6/7/33 5/6/35 40/49/36 39/47/34
f 5/6/35 4/5/10 37/44/9 40/49/36
f 1/1/20 9/10/37 14/16/38 13/15/17
f 9/10/37 8/9/39 15/17/40 14/16/38
f 8/9/39 7/8/15 16/18/14 15/17/40
f 13/15/17 12/14/41 35/40/42 34/39/18
f 12/14/41 11/12/43 36/42/44 35/40/42
f 11/13/43 10/11/23 28/32/22 36/41/44
f 10/11/23 18/20/45 42/53/46 41/51/24
f 18/20/45 17/19/47 43/55/48 42/53/49
f 17/19/47 16/18/14 44/58/13 43/55/48
f 22/25/11 21/23/50 46/62/51 45/59/12
f 21/24/50 20/22/52 47/63/53 46/61/51
f 20/22/52 19/21/26 48/64/25 47/63/53
f 19/21/26 27/31/54 32/37/55 31/36/27
f 27/31/54 26/30/56 33/38/57 32/37/55
f 26/30/56 25/29/19 34/39/18 33/38/57
f 31/36/27 30/35/58 51/68/59 50/67/28
f 30/35/58 29/33/60 52/70/61 51/68/59
f 29/34/60 28/32/22 49/66/21 52/69/62
s 1
f 37/43/8 38/46/7 39/48/63 40/50/64
f 41/52/5 42/54/65 43/56/66 44/57/6
f 45/60/1 46/61/67 47/63/68 48/64/2
f 49/65/4 50/67/3 51/68/69 52/70/70
s 2
f 9/10/37 1/1/20 2/2/31 53/71/71
f 53/71/71 2/2/31 3/4/29 54/72/72
f 3/3/29 4/5/10 5/6/35 54/72/72
f 54/72/72 5/6/35 6/7/33 55/73/73
f 6/7/33 7/8/15 8/9/39 55/73/73
f 55/73/73 8/9/39 9/10/37 53/71/71
f 53/71/71 54/72/72 55/73/73
f 18/20/45 10/11/23 11/13/43 56/74/74
f 56/74/74 11/12/43 12/14/41 57/75/75
f 12/14/41 13/15/17 14/16/38 57/75/75
f 57/75/75 14/16/38 15/17/40 58/76/76
f 15/17/40 16/18/14 17/19/47 58/76/76
f 58/76/76 17/19/47 18/20/45 56/74/74
f 56/74/74 57/75/75 58/76/76
f 27/31/54 19/21/26 20/22/52 59/77/77
f 59/77/77 20/22/52 21/24/50 60/78/78
f 21/23/50 22/25/11 23/27/30 60/79/78
f 60/78/78 23/26/30 24/28/32 61/80/79
f 24/28/32 25/29/19 26/30/56 61/80/79
f 61/80/79 26/30/56 27/31/54 59/77/77
f 59/77/77 60/78/78 61/80/79
f 36/41/44 28/32/22 29/34/60 62/82/80
f 62/81/80 29/33/60 30/35/58 63/83/81
f 30/35/58 31/36/27 32/37/55 63/83/81
f 63/83/81 32/37/55 33/38/57 64/84/82
f 33/38/57 34/39/18 35/40/42 64/84/82
f 64/84/82 35/40/42 36/42/44 62/81/80
f 62/81/80 63/83/81 64/84/82
